<svg id="adam-logo" xmlns="http://www.w3.org/2000/svg" viewBox="0 0 512 512">
  <path fill="currentColor" d="m498.49,355.11c9-11.46,13.51-24.11,13.51-37.94V12c0-6.63-5.37-12-12-12h-70.58c-6.63,0-12,5.37-12,12v301.44L293.55,53.39c-1.99-4.18-6.21-6.84-10.83-6.84h-53.43c-4.63,0-8.84,2.66-10.83,6.84l-124.51,261.39c-.05-.29-.08-.58-.08-.88v-29.49c0-6.63-5.37-12-12-12H12c-6.63,0-12,5.37-12,12v32.76c0,13.83,4.5,26.48,13.51,37.94,9,11.46,20.98,20.66,35.91,27.57,3.33,1.54,6.74,2.9,10.22,4.1l-51.47,108.06c-3.79,7.96,2.01,17.16,10.83,17.16h68.58c4.63,0,8.85-2.67,10.84-6.85l53.24-112.1h208.15l53.24,112.1c1.99,4.19,6.21,6.85,10.84,6.85h69.11c8.82,0,14.63-9.2,10.83-17.16l-51.47-108.06c3.48-1.2,6.89-2.56,10.22-4.1,14.93-6.91,26.9-16.1,35.91-27.57Zm-304.21-51.81l50.61-106.57c4.34-9.14,17.34-9.14,21.68,0l50.61,106.57c3.78,7.96-2.03,17.15-10.84,17.15h-101.22c-8.81,0-14.62-9.19-10.84-17.15Z" style="stroke-width:0px;" />
</svg>